<svg width="478" height="119" viewBox="0 0 478 119" fill="none" xmlns="http://www.w3.org/2000/svg">
<path d="M47.3234 64.1951C49.9122 64.1951 52.0109 62.0964 52.0109 59.5075C52.0109 56.9186 49.9122 54.8199 47.3234 54.8199C44.7345 54.8199 42.6358 56.9186 42.6358 59.5075C42.6358 62.0964 44.7345 64.1951 47.3234 64.1951Z" stroke="black" stroke-width="10.3127" stroke-linecap="round" stroke-linejoin="round"/>
<path d="M85.7615 97.9456C95.3241 88.4298 85.8552 63.4451 64.6674 42.1635C43.3858 20.9756 18.401 11.5067 8.88525 21.0694C-0.6774 30.5852 8.7915 55.5699 29.9793 76.8515C51.2609 98.0394 76.2457 107.508 85.7615 97.9456Z" stroke="black" stroke-width="10.3127" stroke-linecap="round" stroke-linejoin="round"/>
<path d="M64.6674 76.8515C85.8552 55.5699 95.3241 30.5852 85.7615 21.0694C76.2457 11.5067 51.2609 20.9756 29.9793 42.1635C8.7915 63.4451 -0.6774 88.4298 8.88525 97.9456C18.401 107.508 43.3858 98.0394 64.6674 76.8515Z" stroke="black" stroke-width="10.3127" stroke-linecap="round" stroke-linejoin="round"/>
<path d="M132.893 29.8661L134.065 18.9674H152.581C155.862 18.9674 158.518 19.9831 160.549 22.0144C162.581 23.9675 163.596 26.5848 163.596 29.8661V66.5463C163.596 68.2651 163.245 69.8276 162.542 71.2339C161.838 72.562 160.901 73.6949 159.729 74.6324L167.229 101H155.979L149.299 77.4449H145.784V101H134.651V29.8661H132.893ZM151.877 29.8661H145.784V66.5463H151.877C152.268 66.5463 152.463 66.351 152.463 65.9604V30.452C152.463 30.0614 152.268 29.8661 151.877 29.8661ZM186.507 101H175.374L181.702 29.8661H179.593L180.765 18.9674H202.21L209.476 101H198.343L197.054 86.9373H187.796L186.507 101ZM188.733 76.0387H196.116L192.484 35.2568L188.733 76.0387ZM217.626 29.8661L218.798 18.9674H237.314C240.595 18.9674 243.252 19.9831 245.283 22.0144C247.314 23.9675 248.33 26.5848 248.33 29.8661V66.5463C248.33 68.2651 247.978 69.8276 247.275 71.2339C246.572 72.562 245.634 73.6949 244.462 74.6324L251.963 101H240.712L234.033 77.4449H230.517V101H219.384V29.8661H217.626ZM236.611 29.8661H230.517V66.5463H236.611C237.001 66.5463 237.197 66.351 237.197 65.9604V30.452C237.197 30.0614 237.001 29.8661 236.611 29.8661ZM286.737 90.1014L285.799 101H260.135V29.8661H258.377L259.549 18.9674H286.737L285.565 29.8661H271.268V54.4758H284.393L283.221 65.3744H271.268V90.1014H286.737ZM354.623 90.5701C354.623 93.8514 353.608 96.5077 351.576 98.539C349.545 100.492 346.889 101.469 343.607 101.469H335.17C331.888 101.469 329.232 100.492 327.201 98.539C325.17 96.5077 324.154 93.8514 324.154 90.5701V29.3973C324.154 26.116 325.17 23.4988 327.201 21.5456C329.232 19.5143 331.888 18.4987 335.17 18.4987H343.607C346.889 18.4987 349.545 19.5143 351.576 21.5456C353.608 23.4988 354.623 26.116 354.623 29.3973V90.5701ZM335.873 29.3973C335.482 29.3973 335.287 29.5926 335.287 29.9833V89.9842C335.287 90.3748 335.482 90.5701 335.873 90.5701H342.904C343.295 90.5701 343.49 90.3748 343.49 89.9842V29.9833C343.49 29.5926 343.295 29.3973 342.904 29.3973H335.873ZM395.824 90.1014L394.886 101H366.878V29.8661H365.12L366.292 18.9674H378.011V90.1014H395.824ZM436.267 90.1014C436.267 93.3827 435.251 96.039 433.22 98.0703C431.188 100.023 428.532 101 425.251 101H405.797V29.8661H404.04L405.211 18.9674H425.251C428.532 18.9674 431.188 19.9831 433.22 22.0144C435.251 23.9675 436.267 26.5848 436.267 29.8661V90.1014ZM424.548 29.8661H416.93V90.1014H424.548C424.938 90.1014 425.134 89.9061 425.134 89.5154V30.452C425.134 30.0614 424.938 29.8661 424.548 29.8661ZM457.924 77.5621V89.9842C457.924 90.3748 458.119 90.5701 458.51 90.5701H463.197C463.588 90.5701 463.783 90.3748 463.783 89.9842V68.8901L454.525 64.7885C453.822 64.5541 452.846 64.1635 451.596 63.6166C450.346 62.9916 449.213 62.0931 448.197 60.9212C447.26 59.7493 446.791 58.1478 446.791 56.1165V29.3973C446.791 26.116 447.806 23.4988 449.838 21.5456C451.869 19.5143 454.525 18.4987 457.807 18.4987H463.9C467.182 18.4987 469.838 19.5143 471.869 21.5456C473.901 23.4988 474.916 26.116 474.916 29.3973V46.7413L463.783 45.8038V29.9833C463.783 29.5926 463.588 29.3973 463.197 29.3973H458.51C458.119 29.3973 457.924 29.5926 457.924 29.9833V54.4758L467.182 58.5775C467.885 58.89 468.861 59.3197 470.111 59.8665C471.362 60.4134 472.455 61.2728 473.393 62.4447C474.408 63.6166 474.916 65.2182 474.916 67.2495V90.5701C474.916 93.8514 473.901 96.5077 471.869 98.539C469.838 100.492 467.182 101.469 463.9 101.469H457.807C454.525 101.469 451.869 100.492 449.838 98.539C447.806 96.5077 446.791 93.8514 446.791 90.5701V77.5621H457.924Z" fill="black"/>
</svg>
